<svg xmlns="http://www.w3.org/2000/svg" viewBox="0 0 700 220" role="img" aria-label="Velvet Touch Spa logo">
  <defs>
    <linearGradient id="gold" x1="0%" y1="0%" x2="100%" y2="100%">
      <stop offset="0%" stop-color="#f8ebbf"/>
      <stop offset="28%" stop-color="#d7b15d"/>
      <stop offset="55%" stop-color="#f1d98d"/>
      <stop offset="100%" stop-color="#a67d1a"/>
    </linearGradient>
    <linearGradient id="maroon" x1="0%" y1="0%" x2="100%" y2="100%">
      <stop offset="0%" stop-color="#8f1533"/>
      <stop offset="50%" stop-color="#520915"/>
      <stop offset="100%" stop-color="#1b090d"/>
    </linearGradient>
    <filter id="softShadow" x="-20%" y="-20%" width="140%" height="160%">
      <feDropShadow dx="0" dy="5" stdDeviation="5" flood-color="#000000" flood-opacity="0.30"/>
    </filter>
  </defs>

  <g filter="url(#softShadow)">
    <circle cx="98" cy="110" r="62" fill="url(#maroon)" stroke="url(#gold)" stroke-width="3"/>

    <path d="M67 75 L86 148 L98 111 L110 148 L129 75" fill="none" stroke="url(#gold)" stroke-width="9" stroke-linecap="round" stroke-linejoin="round"/>
    <path d="M78 63 L87 52 L98 72 L109 52 L118 63" fill="none" stroke="url(#gold)" stroke-width="5" stroke-linecap="round" stroke-linejoin="round"/>
    <path d="M124 52 C133 72, 136 86, 140 97 C146 88, 149 79, 153 63 C162 63,168 61,172 55 C166 48,159 44,150 45 C140 46,132 48,124 52 Z" fill="url(#gold)" opacity="0.96"/>

    <g>
      <text x="198" y="102" fill="url(#gold)" font-size="68" font-weight="700" font-family="Georgia, 'Times New Roman', serif" letter-spacing="3">VTS</text>
      <text x="201" y="138" fill="#d7b15d" font-size="17" font-weight="600" font-family="Arial, Helvetica, sans-serif" letter-spacing="6">VELVET TOUCH SPA</text>
      <line x1="201" y1="152" x2="505" y2="152" stroke="url(#gold)" stroke-width="2" opacity="0.9"/>
    </g>
  </g>
</svg>
